<svg xmlns="http://www.w3.org/2000/svg" width="446.293" height="330.331" viewBox="0 0 446.293 330.331">
  <g id="XMLID_177_" transform="translate(0 0.031)">
    <g id="XMLID_340_">
      <path id="XMLID_342_" d="M403.7,324.7c47.5-36.1,68.6-136.2-8.5-185.3-51-32.5-82.8-14-140.2-35.5C184.9,77.7,174.4-1.6,89.1,37.4,44,58.1,12.6,116.3,7.1,182.5,1.7,247.3,24.7,291.8,71.6,322.2,181.9,326.9,292.3,326,403.7,324.7Z" fill="#dff3fc"/>
      <path id="XMLID_341_" d="M208.6,39.9c-7.2,28.8,19.5,57.3,47.5,69.1,28.1,11.8,60.2,10.4,90.3,4.8,13-2.4,26.3-5.9,36.4-14.1,10.1-8.3,15.9-22.6,10.4-34.2-4.9-10.2-16.7-15.5-28.1-18.2-11.3-2.7-23.3-3.8-33.4-9.5-9.6-5.4-16.3-14.3-24.6-21.3-15.4-13-36.9-19.4-56.9-15.3S214.7,15.4,208.6,39.9Z" fill="#dff3fc"/>
    </g>
    <g id="XMLID_178_">
      <g id="XMLID_290_">
        <g id="XMLID_330_">
          <path id="XMLID_337_" d="M423.4,172.4V150.6h-8.3a43.823,43.823,0,0,0-4.4-10.7l5.8-5.9-15.4-15.4-5.9,5.8a40.222,40.222,0,0,0-10.7-4.4v-8.3H362.7V120a43.823,43.823,0,0,0-10.7,4.4l-5.9-5.8L330.8,134l5.8,5.9a43.823,43.823,0,0,0-4.4,10.7H324v21.8h8.3a43.823,43.823,0,0,0,4.4,10.7l-5.8,5.9,15.4,15.4,5.9-5.8a43.823,43.823,0,0,0,10.7,4.4v8.3h21.8V203a43.824,43.824,0,0,0,10.7-4.4l5.9,5.8L416.7,189l-5.8-5.9a40.222,40.222,0,0,0,4.4-10.7Zm-49.7,8a18.9,18.9,0,1,1,18.9-18.9A18.949,18.949,0,0,1,373.7,180.4Z" fill="#a2c7eb"/>
          <path id="XMLID_334_" d="M357.6,227l-4.1-10.8-4.1,1.6a25.748,25.748,0,0,0-4.2-4.5l1.8-4-10.6-4.7-1.8,4a25.594,25.594,0,0,0-6.2-.2l-1.6-4.1L316,208.4l1.6,4.1a25.746,25.746,0,0,0-4.5,4.2l-4-1.8-4.7,10.6,4,1.8a25.6,25.6,0,0,0-.2,6.2l-4.1,1.6,4.1,10.8,4.1-1.6a25.748,25.748,0,0,0,4.2,4.5l-1.8,4,10.6,4.7,1.8-4a25.594,25.594,0,0,0,6.2.2l1.6,4.1,10.8-4.1-1.6-4.1a25.746,25.746,0,0,0,4.5-4.2l4,1.8,4.7-10.6-4-1.8a25.6,25.6,0,0,0,.2-6.2Zm-23.1,13.4a10.066,10.066,0,0,1-7.2-18.8,9.9,9.9,0,0,1,12.9,5.8A10.085,10.085,0,0,1,334.5,240.4Z" fill="none" stroke="#a2c7eb" stroke-miterlimit="10" stroke-width="1"/>
          <path id="XMLID_331_" d="M322.2,189.1l-2.8-7.3-2.8,1.1a13.76,13.76,0,0,0-2.9-3l1.2-2.7-7.1-3.2-1.2,2.7a14.788,14.788,0,0,0-4.2-.1l-1.1-2.8-7.3,2.8,1.1,2.8a13.76,13.76,0,0,0-3,2.9l-2.7-1.2-3.2,7.1,2.7,1.2a14.788,14.788,0,0,0-.1,4.2l-2.8,1.1,2.8,7.3,2.8-1.1a13.76,13.76,0,0,0,2.9,3l-1.2,2.7,7.1,3.2,1.2-2.7a14.788,14.788,0,0,0,4.2.1l1.1,2.8,7.3-2.8-1.1-2.8a13.76,13.76,0,0,0,3-2.9l2.7,1.2,3.2-7.1-2.7-1.2a14.788,14.788,0,0,0,.1-4.2Zm-15.6,9a6.806,6.806,0,0,1-4.9-12.7,6.807,6.807,0,0,1,4.9,12.7Z" fill="none" stroke="#a2c7eb" stroke-miterlimit="10" stroke-width="1"/>
        </g>
        <g id="XMLID_324_">
          <path id="XMLID_328_" d="M319.7,61.2a34.4,34.4,0,1,1-34.4-34.4A34.33,34.33,0,0,1,319.7,61.2Z" fill="#0097d8" stroke="#0097d8" stroke-miterlimit="10" stroke-width="1"/>
          <g id="XMLID_325_">
            <circle id="XMLID_327_" cx="11.3" cy="11.3" r="11.3" transform="translate(273.9 38.6)" fill="#fff"/>
            <path id="XMLID_326_" d="M306.6,83.9a34.355,34.355,0,0,1-42.6,0c2.2-9.7,4.2-18.1,6.3-20.2,3-3,10.9-4.7,15-4.7s12.4,2.1,13.9,3.6C302.3,65.8,305,74.4,306.6,83.9Z" fill="#fff"/>
          </g>
        </g>
        <g id="XMLID_311_">
          <g id="XMLID_321_">
            <path id="XMLID_323_" d="M235.8,146.1v-17a8.451,8.451,0,0,1,8.4-8.4h53.6a8.451,8.451,0,0,1,8.4,8.4v17a8.451,8.451,0,0,1-8.4,8.4H244.3A8.408,8.408,0,0,1,235.8,146.1Z" fill="#0097d8"/>
            <path id="XMLID_322_" d="M258.4,145.2l-25.9,25.3,42-21.3" fill="#0097d8"/>
          </g>
          <g id="XMLID_312_">
            <path id="XMLID_320_" d="M242.3,128.7h0a1.261,1.261,0,0,1,1.3-1.3H270a1.324,1.324,0,0,1,1.3,1.3v.1a1.324,1.324,0,0,1-1.3,1.3H243.5A1.482,1.482,0,0,1,242.3,128.7Z" fill="#fff"/>
            <path id="XMLID_319_" d="M272.4,128.7h0a1.261,1.261,0,0,1,1.3-1.3h23.1a1.324,1.324,0,0,1,1.3,1.3v.1a1.324,1.324,0,0,1-1.3,1.3H273.7A1.584,1.584,0,0,1,272.4,128.7Z" fill="#fff"/>
            <path id="XMLID_318_" d="M262.3,134.4h0a1.261,1.261,0,0,1,1.3-1.3h33.2a1.324,1.324,0,0,1,1.3,1.3v.1a1.324,1.324,0,0,1-1.3,1.3H263.6A1.584,1.584,0,0,1,262.3,134.4Z" fill="#fff"/>
            <path id="XMLID_317_" d="M242.3,134.4h0a1.261,1.261,0,0,1,1.3-1.3h14.8a1.324,1.324,0,0,1,1.3,1.3v.1a1.324,1.324,0,0,1-1.3,1.3H243.6A1.482,1.482,0,0,1,242.3,134.4Z" fill="#fff"/>
            <path id="XMLID_316_" d="M266.9,140.1h0a1.261,1.261,0,0,1,1.3-1.3h28.6a1.324,1.324,0,0,1,1.3,1.3v.1a1.324,1.324,0,0,1-1.3,1.3H268.2A1.69,1.69,0,0,1,266.9,140.1Z" fill="#fff"/>
            <path id="XMLID_315_" d="M242.3,140.1h0a1.261,1.261,0,0,1,1.3-1.3h19.8a1.324,1.324,0,0,1,1.3,1.3v.1a1.324,1.324,0,0,1-1.3,1.3H243.6A1.567,1.567,0,0,1,242.3,140.1Z" fill="#fff"/>
            <path id="XMLID_314_" d="M242.3,145.7h0a1.261,1.261,0,0,1,1.3-1.3h7.3a1.324,1.324,0,0,1,1.3,1.3v.1a1.324,1.324,0,0,1-1.3,1.3h-7.3A1.408,1.408,0,0,1,242.3,145.7Z" fill="#fff"/>
            <path id="XMLID_313_" d="M254.7,145.7h0a1.261,1.261,0,0,1,1.3-1.3h40.9a1.324,1.324,0,0,1,1.3,1.3v.1a1.324,1.324,0,0,1-1.3,1.3H256A1.408,1.408,0,0,1,254.7,145.7Z" fill="#fff"/>
          </g>
        </g>
        <g id="XMLID_299_">
          <g id="XMLID_301_">
            <circle id="XMLID_310_" cx="33.1" cy="33.1" r="33.1" transform="translate(40.4 75)" fill="#0097d8"/>
            <g id="XMLID_302_">
              <g id="XMLID_307_">
                <circle id="XMLID_309_" cx="8" cy="8" r="8" transform="translate(57.7 116.3)" fill="#fff"/>
                <path id="XMLID_308_" d="M61.5,127.2l-.4-5.1,4.2-2.9,4.6,2.2.4,5.1-4.2,2.9Z" fill="#0097d8"/>
              </g>
              <g id="XMLID_304_">
                <circle id="XMLID_306_" cx="8" cy="8" r="8" transform="translate(73.3 83.8)" fill="#fff"/>
                <path id="XMLID_305_" d="M77.3,94.2l.3-6.5,4.9-4.2,4.6,2.2-.3,6.4-4.9,4.3Z" fill="#0097d8"/>
              </g>
              <path id="XMLID_303_" d="M71.3,120.6l-6.1-2.9,4.5-10.5c.3-.7.6-1.3.9-2l5.3-10.1L82,98l-4.4,10.3a16.269,16.269,0,0,1-1.1,2.3Z" fill="#fff"/>
            </g>
          </g>
          <path id="XMLID_300_" d="M96.5,125.9c1.2-.5,20.2.3,20.2.3L103,113.6Z" fill="#0097d8"/>
        </g>
        <g id="XMLID_291_">
          <g id="XMLID_296_">
            <g id="XMLID_297_">
              <circle id="XMLID_298_" cx="32.6" cy="32.6" r="32.6" transform="translate(117.9 6.5)" fill="#0097d8"/>
            </g>
          </g>
          <g id="XMLID_292_">
            <rect id="XMLID_295_" width="2.2" height="27.3" transform="translate(149.4 11.4)" fill="#fff"/>
            <rect id="XMLID_294_" width="2.2" height="27.7" transform="translate(127.764 56.271) rotate(-124.69)" fill="#fff"/>
            <circle id="XMLID_293_" cx="3" cy="3" r="3" transform="translate(147.5 36.1)" fill="#fff"/>
          </g>
        </g>
      </g>
      <g id="XMLID_179_">
        <g id="XMLID_241_">
          <g id="XMLID_274_">
            <g id="XMLID_287_">
              <path id="XMLID_289_" d="M238.9,259.6c-1.9-29.8,11.1-60.6,33-78.2C272.6,211.3,259.7,241.6,238.9,259.6Z" fill="#a2c7eb"/>
              <path id="XMLID_288_" d="M268.3,189.4a405.43,405.43,0,0,0-23.9,53.8c-8.1,22.6-14.4,46.6-28.2,65.5" fill="none" stroke="#6f8bbf" stroke-linecap="round" stroke-miterlimit="10" stroke-width="1"/>
            </g>
            <g id="XMLID_284_">
              <path id="XMLID_286_" d="M232,278.3c11.1-24.8,33.1-43.6,57.4-48.9C279,256,255.8,276.3,232,278.3Z" fill="#a2c7eb"/>
              <path id="XMLID_285_" d="M283.4,234.8q-24.9,21.9-50.6,42.6" fill="none" stroke="#6f8bbf" stroke-linecap="round" stroke-miterlimit="10" stroke-width="1"/>
            </g>
            <g id="XMLID_281_">
              <path id="XMLID_283_" d="M225.4,299.9c14.8-22.1,42.2-33.7,64.8-27.4C273.6,294.4,246.2,306,225.4,299.9Z" fill="#a2c7eb"/>
              <path id="XMLID_282_" d="M284.8,274.1a214.239,214.239,0,0,1-62,26.5" fill="none" stroke="#6f8bbf" stroke-linecap="round" stroke-miterlimit="10" stroke-width="1"/>
            </g>
            <g id="XMLID_278_">
              <path id="XMLID_280_" d="M233.4,270.7c4.7-24.9-2.4-52.7-18.2-71.1C208.7,224.1,214.9,252.8,233.4,270.7Z" fill="#a2c7eb"/>
              <path id="XMLID_279_" d="M216.9,206a270.068,270.068,0,0,0,17.3,66.2" fill="none" stroke="#6f8bbf" stroke-linecap="round" stroke-miterlimit="10" stroke-width="1"/>
            </g>
            <g id="XMLID_275_">
              <path id="XMLID_277_" d="M225.3,292c-2-25.6-15.2-49.7-34.4-63a109.983,109.983,0,0,0,10.4,38.6C207.9,281.2,217.6,289.9,225.3,292Z" fill="#a2c7eb"/>
              <path id="XMLID_276_" d="M193.8,234.2a204.394,204.394,0,0,0,32,58.4" fill="none" stroke="#6f8bbf" stroke-linecap="round" stroke-miterlimit="10" stroke-width="1"/>
            </g>
          </g>
          <g id="XMLID_258_">
            <g id="XMLID_271_">
              <path id="XMLID_273_" d="M373.7,285.8c10.5-27.3,34.6-49.4,61.2-56.2C423.3,256.6,399.5,278.3,373.7,285.8Z" fill="#a2c7eb"/>
              <path id="XMLID_272_" d="M428.5,235.3a400.09,400.09,0,0,0-43.2,38.2c-16.4,16.8-31.8,35.6-51.8,46.8" fill="none" stroke="#6f8bbf" stroke-linecap="round" stroke-miterlimit="10" stroke-width="1"/>
            </g>
            <g id="XMLID_268_">
              <path id="XMLID_270_" d="M359.9,299.7c20-17.6,47.2-25.3,70.8-20.1C410.7,299,381.8,307.6,359.9,299.7Z" fill="#a2c7eb"/>
              <path id="XMLID_269_" d="M423.2,282c-20.6,6.2-41.4,12-62.2,17.3" fill="none" stroke="#6f8bbf" stroke-linecap="round" stroke-miterlimit="10" stroke-width="1"/>
            </g>
            <g id="XMLID_265_">
              <path id="XMLID_267_" d="M345.3,316.3c22.2-13.7,51.1-12.8,68.5,2.1C390.1,331,361.1,330.2,345.3,316.3Z" fill="#a2c7eb"/>
              <path id="XMLID_266_" d="M408.3,317.5a209.317,209.317,0,0,1-65.7-1.7" fill="none" stroke="#6f8bbf" stroke-linecap="round" stroke-miterlimit="10" stroke-width="1"/>
            </g>
            <g id="XMLID_262_">
              <path id="XMLID_264_" d="M364.3,293.6c14.4-20.3,19.5-48,13.1-70.8C361.6,242,355.3,270.1,364.3,293.6Z" fill="#a2c7eb"/>
              <path id="XMLID_263_" d="M376.2,229.1a259.539,259.539,0,0,0-11.8,66" fill="none" stroke="#6f8bbf" stroke-linecap="round" stroke-miterlimit="10" stroke-width="1"/>
            </g>
            <g id="XMLID_259_">
              <path id="XMLID_261_" d="M348.4,309.2c8.7-23.7,7-50.5-4.6-70.2a107.784,107.784,0,0,0-6.6,38.6C337.5,292.5,342.5,304.2,348.4,309.2Z" fill="#a2c7eb"/>
              <path id="XMLID_260_" d="M344.2,244.8a198.6,198.6,0,0,0,4.4,65" fill="none" stroke="#6f8bbf" stroke-linecap="round" stroke-miterlimit="10" stroke-width="1"/>
            </g>
          </g>
          <g id="XMLID_242_">
            <path id="XMLID_257_" d="M76.4,238.1C65.7,205.4,35.9,179,1.2,171.5,15.7,199.8,42.2,222.3,76.4,238.1Z" fill="#a2c7eb"/>
            <path id="XMLID_256_" d="M78.2,243.2A98.559,98.559,0,0,0,0,235.4,110.258,110.258,0,0,0,78.2,243.2Z" fill="#a2c7eb"/>
            <path id="XMLID_255_" d="M84.7,250.3c-25.3-3.5-51.8,2.7-72.4,17C35.6,275.8,63.6,270.3,84.7,250.3Z" fill="#a2c7eb"/>
            <path id="XMLID_254_" d="M92.6,265.8c-25.1-.1-49.7,11.8-64.5,31.2a55.44,55.44,0,0,0,33.2-3.7C71.6,288.6,80.2,280.7,92.6,265.8Z" fill="#a2c7eb"/>
            <path id="XMLID_253_" d="M110.3,291.7c-24.7-4.2-51.1,3.4-68.9,20a55.335,55.335,0,0,0,33.4,1.8C85.7,310.7,95.5,304.3,110.3,291.7Z" fill="#a2c7eb"/>
            <path id="XMLID_252_" d="M83.6,239.7c-16.3-22-20.8-51.7-11.5-76.9,7.1,12,13.2,24.7,16,38.2C91,214.4,90.4,228.8,83.6,239.7Z" fill="#a2c7eb"/>
            <path id="XMLID_251_" d="M93.6,260.9a75.659,75.659,0,0,1,21-65.1C116.5,220,109.1,244.6,93.6,260.9Z" fill="#a2c7eb"/>
            <g id="XMLID_243_">
              <path id="XMLID_250_" d="M8.8,177.3c49.7,31.8,88.5,79.2,109.1,133" fill="none" stroke="#6f8bbf" stroke-linecap="round" stroke-miterlimit="10" stroke-width="1"/>
              <path id="XMLID_249_" d="M73.6,174.4a402.04,402.04,0,0,1,11,74.7" fill="none" stroke="#6f8bbf" stroke-linecap="round" stroke-miterlimit="10" stroke-width="1"/>
              <path id="XMLID_248_" d="M110.8,205.3a146,146,0,0,1-17.9,56.6" fill="none" stroke="#6f8bbf" stroke-linecap="round" stroke-miterlimit="10" stroke-width="1"/>
              <path id="XMLID_247_" d="M10.5,236a400.743,400.743,0,0,0,69.1,7" fill="none" stroke="#6f8bbf" stroke-linecap="round" stroke-miterlimit="10" stroke-width="1"/>
              <path id="XMLID_246_" d="M24.2,265.4a184.059,184.059,0,0,0,60.8-15" fill="none" stroke="#6f8bbf" stroke-linecap="round" stroke-miterlimit="10" stroke-width="1"/>
              <path id="XMLID_245_" d="M36.8,293.4c19.4-9.7,38.8-19.3,58.1-29" fill="none" stroke="#6f8bbf" stroke-linecap="round" stroke-miterlimit="10" stroke-width="1"/>
              <path id="XMLID_244_" d="M49.4,310.5c25.3-4.9,32.8-10.7,60.9-18.8" fill="none" stroke="#6f8bbf" stroke-linecap="round" stroke-miterlimit="10" stroke-width="1"/>
            </g>
          </g>
        </g>
        <g id="XMLID_181_">
          <g id="XMLID_238_">
            <path id="XMLID_240_" d="M209.6,264.1s2.2,20.1,4.6,21.7c4.4,2.9,55.1,9.6,55.1,9.6l-1.7,13.2s-69.4,6.2-72.4,2.8c-5.1-6-14.1-35.1-14.1-35.1Z" fill="#e06a58"/>
            <path id="XMLID_239_" d="M176.1,212.5l5.6-13.5s15.2,7.1,20.2,16c5.4,9.4,11.9,59.6,11.9,59.6s-26.9,6.2-31.8,3.6S176.1,212.5,176.1,212.5Z" fill="#f2ae30"/>
          </g>
          <path id="XMLID_237_" d="M133.4,149.9c-3.9-1.4-8.1-2.7-12.3-2.4s-8.5,2.6-9.9,6.3c-1,2.6-.6,5.7-2.2,8.1-1.5,2.3-4.6,3.2-7.5,3.4s-5.8-.2-8.6.2c-8.8,1.2-15.1,10.7-12.2,18.6,1.2,3.1,3.5,6.1,3,9.3-.6,3.5-4.2,5.8-5.7,9-2,4.3.4,9.5,4.3,12.4s9,4,14,4.8c6.8,1,13.9,1.5,20.6.1s13.2-5,16.7-10.6c1.6-2.5,2.5-5.2,4.3-7.6,3.7-4.8,10.3-6.6,15.5-10,5.7-3.7,9.8-10.9,6.5-16.6-3.2-5.4-11.6-6.6-15-12-1.4-2.2-1.7-4.8-2.6-7.3C141.4,153.3,139.2,152.1,133.4,149.9Z" fill="#0a2240"/>
          <g id="XMLID_234_">
            <path id="XMLID_236_" d="M156.3,216.6c1,1.1,2.2,2.4,3.8,2.5,1.7.1,3.1-1.1,4.2-2.3a42.62,42.62,0,0,0,10.9-21c-1.4-.8-2.8-1.6-4-2.3a6.469,6.469,0,0,1-2.5-2.7,5.7,5.7,0,0,1-.4-2.6,74.884,74.884,0,0,1,4.1-19.3c-12.5-2.8-24.4-6.2-31.2-11.9-.8,3.5-1.8,10.4-3.9,17.1-2.2,7.2-5.7,14.3-11.6,17.4A122.628,122.628,0,0,1,156.3,216.6Z" fill="#f9a07b"/>
            <path id="XMLID_235_" d="M168.4,188.2a4.624,4.624,0,0,0,.4,2.6c-7.4,9-24-2.8-31.3-16.7,2.1-6.8,3.1-13.6,3.9-17.1,6.8,5.7,18.6,9.1,31.2,11.9A71.177,71.177,0,0,0,168.4,188.2Z" fill="#e06a58"/>
          </g>
          <g id="XMLID_229_">
            <path id="XMLID_233_" d="M189,297c-1.6,10.9,10.1,22.6,10.4,28.4-24.9,0-77,1.5-103.6-2.1-1.2-6.7,11.9-21.8,11.9-36.6,0-2-.1-4.1-.2-6.5-.4-6.6-1.4-14.5-2.5-22.6-3-21.7-6.9-45-4-49.8,5.7-9.4,19-15.8,25.6-18.5,2.3-.9,3.8-1.5,3.9-1.5,8.3,14.1,25.2,26.2,31.5,25.7,1.8-.1,7-2,10.5-19.4,1.4.8,2.7,1.5,4,2.2,6.6,3.4,12.8,6.3,14.5,10.7,4.7,11.6,9.3,40.9,8.3,51.3-1,10.5-5.3,18.5-8.2,29.1-.7,2.5-1.3,5.1-1.8,7.9C189.2,295.7,189.1,296.3,189,297Z" fill="#ffc73c"/>
            <path id="XMLID_232_" d="M199.4,325.3c-24.9,0-77,1.5-103.6-2.1-1.2-6.7,11.9-21.8,11.9-36.6,0-2-.1-4.1-.2-6.5-.4-6.6-1.4-14.5-2.5-22.6,4.7,5,11.6-16,14.6-9.9,16.5,33.2,29.4,41.9,52,41.9a87.571,87.571,0,0,0,19.6-2.4c-.7,2.5-1.3,5.1-1.8,7.9-.1.6-.2,1.3-.3,2C187.4,307.8,199.1,319.5,199.4,325.3Z" fill="#fb3"/>
            <path id="XMLID_230_" d="M176.6,196.1c-1.1,7.8-4.2,18.2-13.5,21-12.5,3.7-30.5-19.5-36.5-27.9,2.3-.9,3.8-1.5,3.9-1.5,8.3,14.1,25.2,26.2,31.5,25.7,1.8-.1,7-2,10.5-19.4C173.9,194.7,175.2,195.4,176.6,196.1Z" fill="#fce172"/>
          </g>
          <g id="XMLID_221_">
            <g id="XMLID_223_">
              <g id="XMLID_227_">
                <path id="XMLID_228_" d="M181.7,313.7l-.1,8.6,155,.9.3-9.8Z" fill="#325f73"/>
              </g>
              <g id="XMLID_224_">
                <path id="XMLID_226_" d="M403.8,236.3l-3.5-3.5-112.9-.7L230.8,314l2.9,2.4Z" fill="#325f73"/>
                <path id="XMLID_225_" d="M289.6,235.1l-55.9,81.3,106.7.5,63.4-80.6Z" fill="#0b2d50"/>
              </g>
            </g>
            <ellipse id="XMLID_222_" cx="12.4" cy="6.2" rx="12.4" ry="6.2" transform="translate(304.2 274.6)" fill="#3c738c"/>
          </g>
          <g id="XMLID_193_">
            <g id="XMLID_219_">
              <ellipse id="XMLID_220_" cx="11.5" cy="17.4" rx="11.5" ry="17.4" transform="translate(203.395 176.172) rotate(-169.444)" fill="#56c4f9"/>
            </g>
            <path id="XMLID_218_" d="M206.5,129.4c-1.2,8.2-4.8,17.3-10.2,27.3-1.9-8.2-3.1-18.2-4.7-28.2-1.7-10-3.8-20-7.6-28.2-.8-1.8-1.8-3.5-2.7-5.1a18.524,18.524,0,0,1,6.6.6,22.669,22.669,0,0,1,9,4.9,32.223,32.223,0,0,1,8.8,14.3A32.93,32.93,0,0,1,206.5,129.4Z" fill="#0b2d50"/>
            <g id="XMLID_215_">
              <path id="XMLID_217_" d="M200.3,137.9c-.1,1.6-.2,3.3-.3,4.9-2.3,26.6-13.4,44.8-30.5,44.8-24.1,0-39.8-27.1-39.8-53.6,0-26.2,16-45.1,34.8-42.9,10.8,1.2,18.7,4.8,24.3,10.1a32.8,32.8,0,0,1,8.2,12.5,54.46,54.46,0,0,1,3.3,18.1v6.1Z" fill="#f9a07b"/>
              <path id="XMLID_216_" d="M200.3,137.9a24.1,24.1,0,0,0-3.3-7.3,76.39,76.39,0,0,1-47.3,7.6c-3.1,2.6-6.1,5.1-9.1,7.6.1-12.1.2-20.3,4.9-26.2,4.4-5.5,11.8-7.6,18.8-8.5a86.246,86.246,0,0,1,23.8.2,24.835,24.835,0,0,1,8.8,2.6,54.46,54.46,0,0,1,3.3,18.1v.1C200.3,133.9,200.3,135.9,200.3,137.9Z" fill="#e06a58"/>
            </g>
            <path id="XMLID_214_" d="M203.7,121.6a45.759,45.759,0,0,1-12.1,7c-13.3,5.4-30.5,7.1-43.9,6.5-6.6,14.5-9.3,19.7-11,32.4-6.4-6.1-11.7-17.1-13.3-25.8a59.864,59.864,0,0,1,1-26.3,39.49,39.49,0,0,1,20.1-24.2c1.7-.9,3.2-1.5,4.3-2,8.5-3.3,18.1-3,26.8-.3A31.051,31.051,0,0,1,187.7,96c6.8,6.2,11,14.5,13.7,20.7A23.45,23.45,0,0,1,203.7,121.6Z" fill="#0b2d50"/>
            <path id="XMLID_213_" d="M206.5,129.4a51.614,51.614,0,0,0-2.5-8.5,32.789,32.789,0,0,0-2.4-4.5A23.867,23.867,0,0,0,188.8,106a46.245,46.245,0,0,0-4.8-5.8,36.848,36.848,0,0,0-20.7-10.9,39.929,39.929,0,0,0-18.8,1.6c1.7-.9,3.2-1.5,4.3-2,8.5-3.3,18.1-3,26.8-.3a31.051,31.051,0,0,1,12.1,7.1,22.669,22.669,0,0,1,9,4.9,32.223,32.223,0,0,1,8.8,14.3A30.663,30.663,0,0,1,206.5,129.4Z" fill="#225570"/>
            <g id="XMLID_202_">
              <g id="XMLID_207_">
                <path id="XMLID_212_" d="M155.4,145.8c4.5-2.6,9.1-3.7,15.6-1.3" fill="none" stroke="#0b2d50" stroke-linecap="round" stroke-miterlimit="10" stroke-width="2"/>
                <path id="XMLID_211_" d="M185.9,145.6c3.8-2.9,9.5-3.1,12.4,0" fill="none" stroke="#0b2d50" stroke-linecap="round" stroke-miterlimit="10" stroke-width="2"/>
                <path id="XMLID_210_" d="M181.3,160.1c.4,2,.2,6.5-.8,8.5" fill="none" stroke="#cc454e" stroke-linecap="round" stroke-miterlimit="10" stroke-width="2"/>
                <ellipse id="XMLID_209_" cx="1.8" cy="2.9" rx="1.8" ry="2.9" transform="translate(164.4 155.7)" fill="#262d40"/>
                <ellipse id="XMLID_208_" cx="1.8" cy="2.9" rx="1.8" ry="2.9" transform="translate(188.5 154.3)" fill="#262d40"/>
              </g>
              <g id="XMLID_203_">
                <path id="XMLID_206_" d="M179,172.6s-.4.7-1.1,1.7a11.879,11.879,0,0,1-5.4,4.2h0a6.817,6.817,0,0,1-3.5.2c-3.8-.7-4.8-4.1-4.9-6.8v-1.4a14.064,14.064,0,0,1,.1-1.8C170.2,171.9,179,172.6,179,172.6Z" fill="#cc454e"/>
                <path id="XMLID_205_" d="M179,172.6s-.4.7-1.1,1.7c-3.1,0-9.3-1.6-13.9-3.8a14.064,14.064,0,0,1,.1-1.8C170.2,171.9,179,172.6,179,172.6Z" fill="#fff"/>
                <path id="XMLID_204_" d="M172.5,178.4a6.817,6.817,0,0,1-3.5.2c-3.8-.7-4.8-4.1-4.9-6.8a10.156,10.156,0,0,1,8.4,6.6Z" fill="#e8729b"/>
              </g>
            </g>
            <g id="XMLID_194_">
              <path id="XMLID_201_" d="M136.8,141.2a69.334,69.334,0,0,1,5-24.9c6.5-15.6,19.8-22.2,32.6-22.7a34.746,34.746,0,0,1,25.2,9.9s-5.1-8.9-15-11.5c-6.5-1.7-16.4-1.9-24.3,1.3-8.2,3.3-18.3,12.5-22,22.2s-5.5,24.8-5.5,24.8Z" fill="#3d86e0"/>
              <g id="XMLID_198_">
                <ellipse id="XMLID_200_" cx="18.3" cy="12.1" rx="18.3" ry="12.1" transform="translate(124.482 174.91) rotate(-95.935)" fill="#56c4f9"/>
                <ellipse id="XMLID_199_" cx="13.8" cy="7.9" rx="13.8" ry="7.9" transform="translate(125.625 171.591) rotate(-98.546)" fill="#3d86e0"/>
              </g>
              <g id="XMLID_195_">
                <ellipse id="XMLID_197_" cx="6.4" cy="4" rx="6.4" ry="4" transform="translate(168.1 180.1)" fill="#3a92c9"/>
                <path id="XMLID_196_" d="M142.2,170.7s9.5,12.2,25.9,13.4" fill="none" stroke="#3a92c9" stroke-linecap="round" stroke-miterlimit="10" stroke-width="2"/>
              </g>
            </g>
          </g>
          <g id="XMLID_182_">
            <g id="XMLID_184_">
              <g id="XMLID_186_">
                <g id="XMLID_190_">
                  <path id="XMLID_192_" d="M181.6,290.5l-.6,16s-57.8,17.3-67.4,11.9c-4.7-2.7-9-17.4-12.3-31.8-3.4-15.1-5.6-29.8-5.6-29.8l33.9-6.6s0,20.7,1.2,32.6c.4,4.4,1,7.7,1.8,8.2C135.6,292.9,181.6,290.5,181.6,290.5Z" fill="#f9a07b"/>
                  <path id="XMLID_191_" d="M130.8,282.7c-6.2,2-18,5.1-29.5,3.9-3.4-15.1-5.6-29.8-5.6-29.8l33.9-6.6C129.6,250,129.7,270.7,130.8,282.7Z" fill="#e06a58"/>
                </g>
                <g id="XMLID_187_">
                  <path id="XMLID_189_" d="M179.9,290.7c8.6-1.8,23.2-6.3,29.2-7.8,4.3-1.1,15.5,4.7,18.4,10.1,1.3,2.4,2.5,15.9-2,14.5-2.2-.7-1.9-6.5-2.6-8.8-.6-1.9-2.4-3.8-5.2-5.4,1.9,4.6,1.8,8.6,1.6,13.6a6.784,6.784,0,0,1-.6,3.2,2.24,2.24,0,0,1-2.7,1.2c-1-.4-1.4-1.7-1.6-2.8a86.062,86.062,0,0,1-1.9-12c.1,4.3,0,8.5-.3,12.8-.2,3.3-1.8,5-3.8,4.5a2.739,2.739,0,0,1-1.6-2.1c-.6,2.1-2.1,4.4-4,3.5-1.2-.5-1.9-4.8-1.7-9.2a25.472,25.472,0,0,1-12.8,3.5c-4.3.2-8.8-.6-11.4-3.6A85.241,85.241,0,0,1,179.9,290.7Z" fill="#f9a07b"/>
                  <path id="XMLID_188_" d="M207,311a29.606,29.606,0,0,0-.9-10.3" fill="none" stroke="#cc454e" stroke-linecap="round" stroke-miterlimit="10" stroke-width="1"/>
                </g>
              </g>
              <path id="XMLID_185_" d="M125.8,216.5c-2.5-6.9-11.5-21.1-11.5-21.1s-13.8,5.7-18.6,15.4c-8.3,16.4-4.1,63.6-4.1,63.6,11.1,4.7,33.5,4.7,43,3.4C134.7,277.9,130.8,230.4,125.8,216.5Z" fill="#ffc73c"/>
            </g>
            <path id="XMLID_183_" d="M127.6,219.4a296.131,296.131,0,0,1,6.4,51.1" fill="none" stroke="#f2ae30" stroke-linecap="round" stroke-miterlimit="10" stroke-width="1"/>
          </g>
        </g>
        <rect id="XMLID_180_" width="394.3" height="9.9" transform="translate(27.6 320.4)" fill="#0b2d50"/>
      </g>
    </g>
  </g>
</svg>
